# xmcd CD database file
#
# Track frame offsets:
#	150
#	26682
#	44720
#	63920
#	82850
#	103542
#	126307
#	147585
#	168267
#	187320
#	206480
#	226675
#	248867
#	274950
#	298020
#
# Disc length: 4283 seconds
#
# Revision: 8
# Processed by: cddbd v1.5.2PL0 Copyright (c) Steve Scherf et al.
# Submitted via: CDex 1.51
#
DISCID=e110b90f
DTITLE=Aretha Franklin - Greatest Hits (1980-1994)
DYEAR=1994
DGENRE=Soul/R&B
TTITLE0=Freeway Of Love
TTITLE1=I Knew You Were Waiting (For Me) [Duet with George Michael]
TTITLE2=Jump To It
TTITLE3=Willing To Forgive
TTITLE4=Doctor's Orders [Duet with Luther Vandros]
TTITLE5=United Together
TTITLE6=Who's Zoomin' Who
TTITLE7=A Deeper Love
TTITLE8=Honey
TTITLE9=Get It Right
TTITLE10=Another Night
TTITLE11=Ever Changing Times [feat. Michael McDonald]
TTITLE12=Jimmy Lee
TTITLE13=You Make Me Feel (Like A Natural Woman) [feat. Bonnie Raitt and Gloria Estefan]
TTITLE14=I Dreamed A Dream
EXTD=Aretha Franklin - Greatest Hits 1980-1994.\nThis is the correct song title listing. YEAR: 1994
EXTT0=
EXTT1=
EXTT2=
EXTT3=
EXTT4=
EXTT5=
EXTT6=
EXTT7=
EXTT8=
EXTT9=
EXTT10=
EXTT11=
EXTT12=
EXTT13=
EXTT14=
PLAYORDER=
